<svg xmlns="http://www.w3.org/2000/svg" viewBox="0 0 512 512"><path d="M310.35 501.7c-2.725 0-5.354-1.5-6.68-4.083L262.736 417.7c-1.888-3.687-.43-8.206 3.256-10.095a7.5 7.5 0 0 1 10.094 3.257l40.933 79.917c1.888 3.687.43 8.206-3.256 10.095-1.094.56-2.262.826-3.413.826zm-173.97 0c-1.15 0-2.32-.266-3.413-.826a7.5 7.5 0 0 1-3.256-10.095l40.933-79.917a7.5 7.5 0 1 1 13.35 6.838l-40.933 79.917c-1.328 2.593-3.956 4.083-6.68 4.083z" fill="#1b3d66"/><path d="M80.428 404.72v-24.005h285.88v24.005c0 5.276-4.277 9.553-9.553 9.553H89.975c-5.276 0-9.553-4.277-9.553-9.553z" fill="#f2df33"/><path d="M342.06 380.72v24.005c0 5.276-4.277 9.553-9.553 9.553h24.25c5.276 0 9.553-4.277 9.553-9.553V380.72h-24.25z" fill="#fcab29"/><path d="M189.24 43.866V21.624a11.32 11.32 0 0 1 11.317-11.317h45.618a11.32 11.32 0 0 1 11.317 11.317v22.24l-68.252.001z" fill="#f2df33"/><path d="M246.18 10.308h-24.422a11.32 11.32 0 0 1 11.317 11.317v22.24h24.422v-22.24a11.32 11.32 0 0 0-11.317-11.317z" fill="#fcab29"/><path d="M425.522 36.366H21.215C9.517 36.366 0 45.883 0 57.58V367c0 11.698 9.517 21.215 21.215 21.215h404.307c11.698 0 21.215-9.517 21.215-21.215V57.58c.001-11.698-9.516-21.215-21.215-21.215z" fill="#ebeef2"/><path d="M425.52 36.366h-25.104c11.698 0 21.215 9.517 21.215 21.215V367c0 11.698-9.517 21.215-21.215 21.215h25.104c11.698 0 21.215-9.517 21.215-21.215V57.58c.001-11.698-9.516-21.215-21.215-21.215z" fill="#d1d6de"/><path d="M135.34 199.34c-2.612 0-5.15-1.366-6.53-3.8-2.044-3.603-.78-8.18 2.822-10.225l38.408-21.794c3.6-2.044 8.18-.78 10.224 2.822s.78 8.18-2.822 10.225l-38.408 21.794a7.46 7.46 0 0 1-3.694.978zm107.23 0c-1.254 0-2.525-.314-3.694-.978l-38.408-21.794c-3.603-2.045-4.866-6.622-2.822-10.225a7.5 7.5 0 0 1 10.224-2.822l38.408 21.794c3.603 2.045 4.866 6.622 2.822 10.225-1.38 2.434-3.92 3.8-6.53 3.8zm25.4-5.58c-1.5 0-3.036-.455-4.358-1.4a7.5 7.5 0 0 1-1.734-10.464l48.465-67.727a7.5 7.5 0 0 1 12.198 8.729l-48.465 67.727c-1.465 2.046-3.768 3.136-6.106 3.136z" fill="#1b3d66"/><path d="M104.9 274.33v60.273a3 3 0 0 0 3 3h24.427a3 3 0 0 0 3-3V274.33a3 3 0 0 0-3-3H107.9a3 3 0 0 0-3 3zM173.74 236v98.6a3 3 0 0 0 3 3h24.427a3 3 0 0 0 3-3V236a3 3 0 0 0-3-3H176.74a3 3 0 0 0-3 3zm68.83 38.33v60.273a3 3 0 0 0 3 3h24.427a3 3 0 0 0 3-3V274.33a3 3 0 0 0-3-3H245.57a3 3 0 0 0-3 3zm68.83-68.23v128.5a3 3 0 0 0 3 3h24.427a3 3 0 0 0 3-3V206.1a3 3 0 0 0-3-3H314.4a3 3 0 0 0-3 3z" fill="#48cfb7"/><path d="M411.25 309.9l59.182 102.5c6.15 10.653 19.772 14.303 30.424 8.152s14.302-19.772 8.152-30.424l-59.18-102.5L411.25 309.9z" fill="#ed5575"/><path d="M449.83 287.64l-38.577 22.272 23.07 39.96a121.13 121.13 0 0 0 20.319-9.35c6.59-3.805 12.68-8.144 18.257-12.922l-23.07-39.96z" fill="#cc3a60"/><circle cx="394.38" cy="236.14" r="95.96" fill="#f2df33"/><circle cx="394.38" cy="236.14" r="67.53" fill="#5c9cee"/><path d="M188.95 136.4c-13.785 0-25 11.215-25 25s11.215 25 25 25 25-11.216 25-25-11.215-25-25-25z" fill="#f2df33"/><path d="M120.12 175.48c-13.785 0-25 11.216-25 25s11.215 25 25 25 25-11.216 25-25-11.215-25-25-25z" fill="#5c9cee"/><path d="M257.8 175.48c-13.785 0-25 11.216-25 25s11.215 25 25 25 25-11.216 25-25-11.216-25-25-25z" fill="#ed5575"/><path d="M326.62 79.31c-13.785 0-25 11.216-25 25s11.215 25 25 25 25-11.215 25-25-11.215-25-25-25z" fill="#9fd479"/></svg>