<svg xmlns="http://www.w3.org/2000/svg" viewBox="0 0 511.999 511.999"><path d="M420.8 234.945c50.372 0 91.21 40.824 91.21 91.197s-40.837 91.21-91.21 91.21H117.356C52.54 417.35 0 364.8 0 299.982s52.54-117.37 117.356-117.37c12.02 0 23.613 1.812 34.52 5.166-.38-3.244-.6-6.537-.6-9.88 0-45.978 37.274-83.252 83.24-83.252 44.435 0 80.73 34.802 83.118 78.637 10.576-9.536 24.556-15.338 39.906-15.338 32.93 0 59.615 26.686 59.615 59.615a59.4 59.4 0 0 1-2.656 17.615c2.08-.134 4.174-.232 6.29-.232z" fill="#a6e2e3"/><path d="M295.4 197.154c8.173-13.942 22.235-23.867 22.235-23.867-2.387-43.836-38.682-78.638-83.118-78.638a83.84 83.84 0 0 0-11.596.822c39.21 5.16 72.48 35.195 72.48 101.683z" opacity=".1"/><path d="M420.8 234.945l-6.292.232c1.726-5.57 2.656-11.482 2.656-17.615 0-32.93-26.686-59.615-59.615-59.615-1.5 0-2.983.072-4.456.18 25.967 1.045 51.447 48.16 32.206 90.22 28.375 0 57.955 1.255 79.625 35.73 17.954 28.563 12.313 68.178-13.057 91.4-9.052 8.286-35.09 23.953-61.817 23.953l-2.33-.013H84.277c-13.524 0-26.51-2.295-38.598-6.505 19.826 15.318 44.685 24.438 71.678 24.438H420.8c50.372 0 91.21-40.836 91.21-91.21s-40.836-91.196-91.21-91.196z" fill="#7ccbcc"/><path d="M330.548 238.066l54.743 71.27h-27.947v59.932h-53.58v-59.932h-27.947zM236.17 298l-54.73 71.268L126.708 298h27.935v-59.933h53.592V298z" fill="#fff"/></svg>