<svg xmlns="http://www.w3.org/2000/svg" height="512" viewBox="0 0 256 256" width="512"><path d="M195.893 202.437H60.107v-9.948a7.43 7.43 0 0 1 7.427-7.427h120.932a7.43 7.43 0 0 1 7.427 7.427z" fill="#7bac51"/><path d="M188.466 185.06h-8.392a7.43 7.43 0 0 1 7.427 7.427v9.948h8.392v-9.948a7.43 7.43 0 0 0-7.427-7.427z" fill="#5d8e33"/><path d="M67.534 185.06h8.392a7.43 7.43 0 0 0-7.427 7.427v9.948h-8.392v-9.948a7.43 7.43 0 0 1 7.427-7.427z" fill="#99ca6f"/><path d="M88.14 172.342h79.72v12.72H88.14z" fill="#5d8e33"/><g fill="#690589"><path d="M195.893 204.437H60.107a2 2 0 0 1-2-2v-9.948a9.44 9.44 0 0 1 9.427-9.427h120.933a9.44 9.44 0 0 1 9.427 9.427v9.948a2 2 0 0 1-2.001 2zm-133.786-4h131.786v-7.948c0-2.992-2.435-5.427-5.427-5.427H67.534c-2.992 0-5.427 2.435-5.427 5.427z"/><path d="M167.86 187.062H88.14a2 2 0 0 1-2-2v-12.72a2 2 0 0 1 2-2h79.72a2 2 0 0 1 2 2v12.72a2 2 0 0 1-2 2zm-77.72-4h75.72v-8.72H90.14z"/></g><path d="M224.635 172.342H31.365a7.43 7.43 0 0 1-7.427-7.427V45.918a7.43 7.43 0 0 1 7.427-7.427h193.27a7.43 7.43 0 0 1 7.427 7.427v118.998a7.43 7.43 0 0 1-7.428 7.426z" fill="#f4efed"/><path d="M117.058 101.724V79.536L92.636 82.63v19.095zm6.807 0h32.677v-26.82l-32.677 4.138zm-6.807 6.806H92.636v19.36l24.422 4.075zm6.807 0v24.086l32.677 5.453v-29.54z" fill="#fcc24c"/><path d="M224.635 38.49h-8.392a7.43 7.43 0 0 1 7.427 7.427v118.998a7.43 7.43 0 0 1-7.427 7.427h8.392a7.43 7.43 0 0 0 7.427-7.427V45.918a7.43 7.43 0 0 0-7.427-7.427z" fill="#d6d1cf"/><path d="M31.365 172.342h8.392a7.43 7.43 0 0 1-7.427-7.427V45.918a7.43 7.43 0 0 1 7.427-7.427h-8.392a7.43 7.43 0 0 0-7.427 7.427v118.998a7.43 7.43 0 0 0 7.427 7.426z" fill="#fff"/><path d="M224.635 174.343H31.365a9.44 9.44 0 0 1-9.427-9.428V45.918a9.44 9.44 0 0 1 9.427-9.427h193.27a9.44 9.44 0 0 1 9.427 9.427v118.997c-.001 5.198-4.23 9.428-9.428 9.428zM31.365 40.5c-2.993 0-5.427 2.435-5.427 5.427v118.997c0 2.993 2.435 5.428 5.427 5.428h193.27c2.993 0 5.427-2.435 5.427-5.428V45.918c0-2.992-2.435-5.427-5.427-5.427zM30.65 71a2 2 0 0 1-2-2V57a2 2 0 1 1 4 0v12a2 2 0 0 1-2 2zm86.408 32.724H92.636a2 2 0 0 1-2-2V82.63a2 2 0 0 1 1.749-1.984l24.42-3.093a2 2 0 0 1 2.252 1.984v22.188a2 2 0 0 1-2 2zm-22.422-4h20.42V81.806l-20.42 2.586zm61.906 4h-32.677a2 2 0 0 1-2-2v-22.68a2 2 0 0 1 1.749-1.984l32.677-4.138c.57-.073 1.143.104 1.574.484a2 2 0 0 1 .678 1.5v26.818a2 2 0 0 1-2.001 2.001zm-30.677-4h28.677v-22.55l-28.677 3.63zm-8.807 34.244a2.03 2.03 0 0 1-.329-.027l-24.42-4.076a2 2 0 0 1-1.671-1.973v-19.36a2 2 0 0 1 2-2h24.42a2 2 0 0 1 2 2v23.437a2 2 0 0 1-.708 1.526c-.364.307-.823.473-1.292.473zm-22.422-7.77l20.42 3.4V110.53h-20.42zm61.906 13.872a2.03 2.03 0 0 1-.329-.027l-32.677-5.454a2 2 0 0 1-1.671-1.973V108.53a2 2 0 0 1 2-2h32.677a2 2 0 0 1 2 2v29.54a2 2 0 0 1-2 2zm-30.677-9.148l28.677 4.787v-25.18h-28.677z" fill="#690589"/><path d="M66.75 217.51H9.914C6.648 217.51 4 214.86 4 211.595v-90.833c0-3.266 2.648-5.914 5.914-5.914h56.838c3.266 0 5.914 2.648 5.914 5.914v90.833c-.001 3.266-2.65 5.914-5.915 5.914z" fill="#f4efed"/><path d="M66.75 114.85h-5.914c3.266 0 5.914 2.648 5.914 5.914v90.833c0 3.266-2.648 5.914-5.914 5.914h5.914c3.266 0 5.914-2.648 5.914-5.914v-90.833c0-3.266-2.648-5.914-5.914-5.914z" fill="#d6d1cf"/><path d="M9.914 217.51h5.914c-3.266 0-5.914-2.648-5.914-5.914v-90.833c0-3.266 2.648-5.914 5.914-5.914H9.914c-3.266 0-5.914 2.648-5.914 5.914v90.833c0 3.266 2.648 5.914 5.914 5.914z" fill="#fff"/><path d="M51.518 124.623h-26.37a4.14 4.14 0 0 1-3.812-2.525l-3.07-7.25H58.4l-3.07 7.25a4.14 4.14 0 0 1-3.812 2.525z" fill="#7bac51"/><g fill="#690589"><path d="M66.75 219.51H9.914C5.55 219.51 2 215.96 2 211.596v-90.833c0-4.364 3.55-7.914 7.914-7.914H66.75c4.364 0 7.914 3.55 7.914 7.914v90.833c0 4.363-3.55 7.913-7.914 7.913zM9.914 116.85A3.92 3.92 0 0 0 6 120.763v90.833a3.92 3.92 0 0 0 3.914 3.913H66.75a3.92 3.92 0 0 0 3.914-3.913v-90.833a3.92 3.92 0 0 0-3.914-3.914z"/><path d="M51.518 126.623h-26.37a6.13 6.13 0 0 1-5.653-3.745l-3.07-7.25c-.26-.618-.196-1.325.174-1.885a2 2 0 0 1 1.667-.896H58.4c.67 0 1.297.336 1.667.896a2 2 0 0 1 .174 1.885l-3.07 7.25c-.963 2.275-3.182 3.745-5.652 3.745zm-30.234-9.774l1.893 4.47c.335.793 1.11 1.306 1.97 1.306h26.37a2.14 2.14 0 0 0 1.971-1.306l1.892-4.47z"/></g><path d="M247.402 98.314h-79.346a4.6 4.6 0 0 0-4.598 4.598v110a4.6 4.6 0 0 0 4.598 4.598h79.346a4.6 4.6 0 0 0 4.598-4.598v-110a4.6 4.6 0 0 0-4.598-4.598z" fill="#7bac51"/><path d="M247.402 98.314h-7.78a4.6 4.6 0 0 1 4.598 4.598v110a4.6 4.6 0 0 1-4.598 4.598h7.78a4.6 4.6 0 0 0 4.598-4.598v-110a4.6 4.6 0 0 0-4.598-4.598z" fill="#5d8e33"/><path d="M168.056 98.314h7.78a4.6 4.6 0 0 0-4.598 4.598v110a4.6 4.6 0 0 0 4.598 4.598h-7.78a4.6 4.6 0 0 1-4.598-4.598v-110a4.6 4.6 0 0 1 4.598-4.598z" fill="#99ca6f"/><path d="M247.402 219.51h-79.346a6.61 6.61 0 0 1-6.598-6.598v-110c0-3.638 2.96-6.598 6.598-6.598h79.346a6.61 6.61 0 0 1 6.598 6.598v110a6.61 6.61 0 0 1-6.598 6.598zm-79.346-119.195a2.6 2.6 0 0 0-2.598 2.598v110a2.6 2.6 0 0 0 2.598 2.598h79.346a2.6 2.6 0 0 0 2.598-2.598v-110a2.6 2.6 0 0 0-2.598-2.598z" fill="#690589"/><path d="M172.27 107.8h70.92v91.944h-70.92z" fill="#f4efed"/><path d="M243.2 201.745h-70.92a2 2 0 0 1-2-2v-91.943a2 2 0 0 1 2-2h70.92a2 2 0 0 1 2 2v91.943a2 2 0 0 1-2 2zm-68.92-4h66.92v-87.943h-66.92zm37.137 11.075a3.68 3.68 0 0 1-3.678 3.678 3.68 3.68 0 0 1-3.678-3.678 3.68 3.68 0 0 1 3.678-3.678 3.68 3.68 0 0 1 3.678 3.678z" fill="#690589"/><path d="M226.77 171.427h-38.082v-8c0-10.516 8.525-19.04 19.04-19.04s19.04 8.525 19.04 19.04z" fill="#7bac51"/><g fill="#690589"><path d="M226.77 173.427h-38.082a2 2 0 0 1-2-2v-7.99c0-11.602 9.44-21.04 21.04-21.04s21.04 9.44 21.04 21.04v7.99a2 2 0 0 1-2 2zm-36.082-4h34.082v-5.99c0-9.396-7.645-17.04-17.04-17.04s-17.04 7.645-17.04 17.04z"/><path d="M195.298 150.575a1.99 1.99 0 0 1-1.414-.586l-7.132-7.13a2 2 0 1 1 2.829-2.828l7.132 7.13a2 2 0 0 1 0 2.828c-.4.4-.903.586-1.415.586zm24.862 0c-.512 0-1.024-.195-1.415-.586a2 2 0 0 1 0-2.828l7.132-7.13a2 2 0 1 1 2.829 2.828l-7.132 7.13a1.99 1.99 0 0 1-1.414.586zm-20.854 14.107a2 2 0 0 1-2-2v-3.776a2 2 0 1 1 4 0v3.776a2 2 0 0 1-2 2zm16.846 0a2 2 0 0 1-2-2v-3.776a2 2 0 1 1 4 0v3.776a2 2 0 0 1-2 2z"/></g><path d="M49.1 169.957c0-3.57 2.192-6.623 5.3-7.898-2.384-3.946-6.967-5.738-14.6-2.54a3.84 3.84 0 0 1-2.962 0c-18.514-7.764-19.13 13.863-13.736 24.457 4.285 8.417 11.06 6.05 13.897 4.552.826-.436 1.812-.436 2.638 0 2.838 1.497 9.612 3.865 13.897-4.552.858-1.685 1.562-3.65 2.068-5.732-3.736-.9-6.514-4.27-6.514-8.286zm-9.114-24.373c-2.066 2.066-2.874 4.906-2.443 7.586 2.68.43 5.52-.377 7.586-2.443s2.874-4.906 2.443-7.586c-2.68-.43-5.52.377-7.586 2.443z" fill="#ff4397"/><path d="M45.16 192.014c-2.693 0-5.065-1-6.445-1.717a.82.82 0 0 0-.772-.001c-1.9.998-5.64 2.484-9.526 1.25-2.924-.93-5.3-3.17-7.087-6.664-3.982-7.823-4.682-20.036.624-25.75 2.45-2.637 7.156-5.027 15.668-1.46a1.84 1.84 0 0 0 1.416 0c10.447-4.382 15.182.218 17.074 3.352a2 2 0 0 1-.953 2.884c-2.466 1.012-4.06 3.386-4.06 6.048 0 3.02 2.05 5.628 4.987 6.343a2 2 0 0 1 1.47 2.416c-.544 2.24-1.315 4.372-2.23 6.166-1.778 3.494-4.163 5.736-7.087 6.664-1.048.332-2.086.467-3.08.467zm-6.83-5.814c.773 0 1.547.187 2.252.558 1.336.706 3.95 1.77 6.45.976 1.866-.592 3.458-2.162 4.733-4.666a23.01 23.01 0 0 0 1.426-3.562 10.5 10.5 0 0 1-1.816-18.026c-2.34-2.102-5.958-2.143-10.8-.118-1.435.6-3.08.6-4.5-.001-5.124-2.15-8.9-1.984-11.2.494-4 4.294-3.285 14.74.01 21.212 1.275 2.504 2.867 4.073 4.733 4.666 2.5.795 5.114-.27 6.45-.976.705-.37 1.478-.557 2.252-.557zm.604-30.92a10.71 10.71 0 0 1-1.709-.137 2 2 0 0 1-1.657-1.657c-.548-3.405.575-6.9 3.003-9.317s5.917-3.548 9.318-3.003a2 2 0 0 1 1.657 1.656c.548 3.405-.574 6.9-3.003 9.318-2.023 2.023-4.777 3.14-7.6 3.14zm2.466-8.283c-1.146 1.146-1.828 2.67-1.95 4.264a6.76 6.76 0 0 0 4.264-1.948c1.146-1.146 1.828-2.67 1.95-4.264-1.596.12-3.118.803-4.264 1.948z" fill="#690589"/></svg>