<?xml version="1.0" standalone="no"?>
<!DOCTYPE svg PUBLIC "-//W3C//DTD SVG 20010904//EN"
 "http://www.w3.org/TR/2001/REC-SVG-20010904/DTD/svg10.dtd">
<svg version="1.0" xmlns="http://www.w3.org/2000/svg"
 width="512.000000pt" height="512.000000pt" viewBox="0 0 512.000000 512.000000"
 preserveAspectRatio="xMidYMid meet">
<metadata>
Created by potrace 1.11, written by Peter Selinger 2001-2013
</metadata>
<g transform="translate(0.000000,512.000000) scale(0.100000,-0.100000)"
fill="#000000" stroke="none">
<path d="M2332 5109 c-1100 -98 -2025 -910 -2266 -1989 -78 -351 -78 -769 0
-1120 144 -647 540 -1216 1099 -1583 853 -559 1971 -552 2820 18 520 349 903
891 1055 1497 59 231 73 357 73 628 0 271 -14 397 -73 628 -152 606 -535 1148
-1055 1497 -481 323 -1076 475 -1653 424z m1309 -740 c101 -39 158 -76 229
-148 68 -69 115 -147 146 -241 18 -52 19 -116 22 -1018 2 -648 -1 -975 -8
-1001 -13 -51 -66 -97 -119 -106 -33 -5 -51 -2 -88 17 -89 44 -83 -33 -83
1020 0 627 -4 944 -11 980 -20 97 -90 178 -183 210 -47 16 -119 17 -966 17
-584 0 -931 -3 -960 -10 -103 -23 -189 -115 -209 -224 -15 -82 -15 -2548 0
-2630 20 -109 106 -201 209 -224 29 -7 376 -10 960 -10 847 0 919 1 966 17
105 37 166 114 188 240 7 45 21 93 30 107 61 93 201 84 254 -16 21 -39 23 -52
17 -112 -14 -144 -66 -257 -165 -358 -71 -72 -128 -109 -229 -148 l-66 -26
-977 -3 c-856 -2 -986 -1 -1045 13 -213 50 -394 232 -439 444 -20 98 -20 2684
0 2782 44 208 224 392 432 443 50 12 216 14 1044 13 l985 -2 66 -26z m-1108
-520 c71 -36 106 -108 88 -176 -7 -26 -64 -102 -172 -233 -241 -292 -263 -312
-367 -326 -92 -12 -141 13 -265 135 -122 119 -137 141 -137 203 0 111 114 180
217 132 19 -9 60 -45 90 -80 31 -35 60 -64 63 -64 4 0 80 88 169 196 107 128
173 200 194 209 39 17 91 19 120 4z m846 -397 c55 -27 76 -64 76 -132 0 -67
-20 -102 -75 -131 -31 -17 -60 -19 -280 -19 -274 0 -294 4 -337 69 -48 71 -20
175 57 213 30 16 67 18 280 18 214 0 249 -2 279 -18z m-818 -505 c21 -14 41
-41 53 -69 34 -84 29 -92 -306 -493 -101 -122 -156 -155 -252 -155 -88 1 -134
26 -243 133 -123 120 -137 142 -131 213 4 47 10 61 40 90 20 20 51 39 72 44
62 14 103 -5 186 -85 l75 -74 159 193 c88 107 171 201 185 210 40 24 121 21
162 -7z m826 -383 c97 -72 97 -186 0 -258 -27 -20 -40 -21 -285 -21 -250 0
-258 1 -293 23 -86 53 -92 195 -11 248 45 30 80 33 324 31 223 -2 238 -3 265
-23z m-830 -485 c62 -38 85 -115 55 -181 -18 -40 -286 -373 -370 -460 -76 -79
-189 -102 -288 -59 -50 22 -190 150 -245 225 -73 98 -3 236 119 236 57 0 74
-10 157 -91 l71 -69 124 151 c160 195 209 249 234 259 40 16 107 11 143 -11z
m831 -389 c51 -31 74 -76 69 -136 -4 -56 -26 -92 -72 -121 -26 -16 -58 -18
-269 -21 -204 -3 -246 -1 -283 13 -114 44 -126 201 -21 265 31 19 51 20 288
20 237 0 257 -1 288 -20z"/>
</g>
</svg>
